<svg width="625" height="336" viewBox="0 0 625 336" fill="none" xmlns="http://www.w3.org/2000/svg">
<path d="M34.7017 293.96C30.4351 293.96 26.6217 292.947 23.2617 290.92C19.9017 288.893 17.2351 286.147 15.2617 282.68C13.3417 279.213 12.3817 275.373 12.3817 271.16C12.3817 266.893 13.3684 263.053 15.3417 259.64C17.3151 256.173 19.9817 253.427 23.3417 251.4C26.7017 249.373 30.4617 248.36 34.6217 248.36C37.8217 248.36 40.6484 248.973 43.1017 250.2C45.6084 251.373 47.5817 253.053 49.0217 255.24L47.1817 257.64V232.44H59.1817V293H47.9817V285L49.1017 287.48C47.6084 289.613 45.5817 291.24 43.0217 292.36C40.4617 293.427 37.6884 293.96 34.7017 293.96ZM36.1417 283.16C38.3284 283.16 40.2484 282.653 41.9017 281.64C43.5551 280.627 44.8351 279.213 45.7417 277.4C46.7017 275.587 47.1817 273.507 47.1817 271.16C47.1817 268.813 46.7017 266.733 45.7417 264.92C44.8351 263.107 43.5551 261.693 41.9017 260.68C40.2484 259.667 38.3284 259.16 36.1417 259.16C33.9551 259.16 31.9817 259.693 30.2217 260.76C28.5151 261.773 27.1817 263.187 26.2217 265C25.2617 266.76 24.7817 268.813 24.7817 271.16C24.7817 273.507 25.2617 275.587 26.2217 277.4C27.1817 279.213 28.5151 280.627 30.2217 281.64C31.9817 282.653 33.9551 283.16 36.1417 283.16ZM86.4899 293.96C83.3432 293.96 80.6232 293.453 78.3299 292.44C76.0365 291.427 74.2765 289.987 73.0499 288.12C71.8232 286.2 71.2099 283.933 71.2099 281.32C71.2099 278.867 71.7699 276.707 72.8899 274.84C74.0099 272.92 75.7165 271.32 78.0099 270.04C80.3565 268.76 83.2632 267.853 86.7299 267.32L100.09 265.16V273.96L88.8899 275.96C87.1832 276.28 85.8765 276.84 84.9699 277.64C84.0632 278.387 83.6099 279.48 83.6099 280.92C83.6099 282.253 84.1165 283.293 85.1299 284.04C86.1432 284.787 87.3965 285.16 88.8899 285.16C90.8632 285.16 92.5965 284.733 94.0899 283.88C95.5832 283.027 96.7299 281.88 97.5299 280.44C98.3832 278.947 98.8099 277.32 98.8099 275.56V264.2C98.8099 262.547 98.1432 261.16 96.8099 260.04C95.5299 258.92 93.7699 258.36 91.5299 258.36C89.3965 258.36 87.5032 258.947 85.8499 260.12C84.2499 261.293 83.0765 262.84 82.3299 264.76L72.7299 260.2C73.5832 257.747 74.9432 255.64 76.8099 253.88C78.6765 252.12 80.9165 250.76 83.5299 249.8C86.1432 248.84 88.9965 248.36 92.0899 248.36C95.7699 248.36 99.0232 249.027 101.85 250.36C104.677 251.693 106.863 253.56 108.41 255.96C110.01 258.307 110.81 261.053 110.81 264.2V293H99.6099V285.96L102.33 285.48C101.05 287.4 99.6365 289 98.0899 290.28C96.5432 291.507 94.8099 292.413 92.8899 293C90.9699 293.64 88.8365 293.96 86.4899 293.96ZM124.61 293V249.32H135.81V257.96L135.17 256.04C136.184 253.427 137.81 251.507 140.05 250.28C142.344 249 145.01 248.36 148.05 248.36C151.357 248.36 154.237 249.053 156.69 250.44C159.197 251.827 161.144 253.773 162.53 256.28C163.917 258.733 164.61 261.613 164.61 264.92V293H152.61V267.48C152.61 265.773 152.264 264.307 151.57 263.08C150.93 261.853 149.997 260.893 148.77 260.2C147.597 259.507 146.21 259.16 144.61 259.16C143.064 259.16 141.677 259.507 140.45 260.2C139.224 260.893 138.264 261.853 137.57 263.08C136.93 264.307 136.61 265.773 136.61 267.48V293H124.61Z" fill="black"/>
<path d="M15.0217 81V21.4H27.0217L49.3417 51H43.7417L65.4217 21.4H77.4217V81H65.0217V35.08L69.9817 36.2L47.0217 65.8H45.4217L23.2617 36.2L27.4217 35.08V81H15.0217ZM113.15 81.96C108.51 81.96 104.484 80.9467 101.07 78.92C97.6571 76.84 95.0171 74.0667 93.1505 70.6C91.2838 67.1333 90.3505 63.2933 90.3505 59.08C90.3505 54.7067 91.3105 50.8133 93.2305 47.4C95.2038 43.9867 97.8438 41.2933 101.15 39.32C104.457 37.3467 108.19 36.36 112.35 36.36C115.817 36.36 118.884 36.92 121.55 38.04C124.217 39.1067 126.457 40.6267 128.27 42.6C130.137 44.5733 131.55 46.8667 132.51 49.48C133.47 52.04 133.95 54.84 133.95 57.88C133.95 58.7333 133.897 59.5867 133.79 60.44C133.737 61.24 133.604 61.9333 133.39 62.52H100.67V53.72H126.59L120.91 57.88C121.444 55.5867 121.417 53.56 120.83 51.8C120.244 49.9867 119.204 48.5733 117.71 47.56C116.27 46.4933 114.484 45.96 112.35 45.96C110.27 45.96 108.484 46.4667 106.99 47.48C105.497 48.4933 104.377 49.9867 103.63 51.96C102.884 53.9333 102.59 56.3333 102.75 59.16C102.537 61.6133 102.83 63.7733 103.63 65.64C104.43 67.5067 105.657 68.9733 107.31 70.04C108.964 71.0533 110.964 71.56 113.31 71.56C115.444 71.56 117.257 71.1333 118.75 70.28C120.297 69.4267 121.497 68.2533 122.35 66.76L131.95 71.32C131.097 73.4533 129.737 75.32 127.87 76.92C126.057 78.52 123.897 79.7733 121.39 80.68C118.884 81.5333 116.137 81.96 113.15 81.96ZM146.017 81V37.32H157.217V45.96L156.577 44.04C157.59 41.4267 159.217 39.5067 161.457 38.28C163.75 37 166.417 36.36 169.457 36.36C172.763 36.36 175.643 37.0533 178.097 38.44C180.603 39.8267 182.55 41.7733 183.937 44.28C185.323 46.7333 186.017 49.6133 186.017 52.92V81H174.017V55.48C174.017 53.7733 173.67 52.3067 172.977 51.08C172.337 49.8533 171.403 48.8933 170.177 48.2C169.003 47.5067 167.617 47.16 166.017 47.16C164.47 47.16 163.083 47.5067 161.857 48.2C160.63 48.8933 159.67 49.8533 158.977 51.08C158.337 52.3067 158.017 53.7733 158.017 55.48V81H146.017ZM193.627 98.76C192.827 98.76 192.054 98.7067 191.307 98.6C190.507 98.5467 189.841 98.4667 189.307 98.36V88.12C190.214 88.28 191.121 88.36 192.027 88.36C194.321 88.36 196.027 87.88 197.147 86.92C198.321 85.96 198.907 84.52 198.907 82.6V37.32H210.907V82.6C210.907 86.0133 210.214 88.92 208.827 91.32C207.494 93.7733 205.521 95.6133 202.907 96.84C200.347 98.12 197.254 98.76 193.627 98.76ZM198.907 33.4V21.4H210.907V33.4H198.907ZM238.209 81.96C235.062 81.96 232.342 81.4533 230.049 80.44C227.755 79.4267 225.995 77.9867 224.769 76.12C223.542 74.2 222.929 71.9333 222.929 69.32C222.929 66.8667 223.489 64.7067 224.609 62.84C225.729 60.92 227.435 59.32 229.729 58.04C232.075 56.76 234.982 55.8533 238.449 55.32L251.809 53.16V61.96L240.609 63.96C238.902 64.28 237.595 64.84 236.689 65.64C235.782 66.3867 235.329 67.48 235.329 68.92C235.329 70.2533 235.835 71.2933 236.849 72.04C237.862 72.7867 239.115 73.16 240.609 73.16C242.582 73.16 244.315 72.7333 245.809 71.88C247.302 71.0267 248.449 69.88 249.249 68.44C250.102 66.9467 250.529 65.32 250.529 63.56V52.2C250.529 50.5467 249.862 49.16 248.529 48.04C247.249 46.92 245.489 46.36 243.249 46.36C241.115 46.36 239.222 46.9467 237.569 48.12C235.969 49.2933 234.795 50.84 234.049 52.76L224.449 48.2C225.302 45.7467 226.662 43.64 228.529 41.88C230.395 40.12 232.635 38.76 235.249 37.8C237.862 36.84 240.715 36.36 243.809 36.36C247.489 36.36 250.742 37.0267 253.569 38.36C256.395 39.6933 258.582 41.56 260.129 43.96C261.729 46.3067 262.529 49.0533 262.529 52.2V81H251.329V73.96L254.049 73.48C252.769 75.4 251.355 77 249.809 78.28C248.262 79.5067 246.529 80.4133 244.609 81C242.689 81.64 240.555 81.96 238.209 81.96ZM296.889 81.96C292.623 81.96 288.809 80.9467 285.449 78.92C282.089 76.8933 279.423 74.1467 277.449 70.68C275.529 67.2133 274.569 63.3733 274.569 59.16C274.569 54.8933 275.556 51.0533 277.529 47.64C279.503 44.1733 282.169 41.4267 285.529 39.4C288.889 37.3733 292.649 36.36 296.809 36.36C300.009 36.36 302.836 36.9733 305.289 38.2C307.796 39.3733 309.769 41.0533 311.209 43.24L309.369 45.64V20.44H321.369V81H310.169V73L311.289 75.48C309.796 77.6133 307.769 79.24 305.209 80.36C302.649 81.4267 299.876 81.96 296.889 81.96ZM298.329 71.16C300.516 71.16 302.436 70.6533 304.089 69.64C305.743 68.6267 307.023 67.2133 307.929 65.4C308.889 63.5867 309.369 61.5067 309.369 59.16C309.369 56.8133 308.889 54.7333 307.929 52.92C307.023 51.1067 305.743 49.6933 304.089 48.68C302.436 47.6667 300.516 47.16 298.329 47.16C296.143 47.16 294.169 47.6933 292.409 48.76C290.703 49.7733 289.369 51.1867 288.409 53C287.449 54.76 286.969 56.8133 286.969 59.16C286.969 61.5067 287.449 63.5867 288.409 65.4C289.369 67.2133 290.703 68.6267 292.409 69.64C294.169 70.6533 296.143 71.16 298.329 71.16ZM335.157 81V37.32H347.157V81H335.157ZM335.157 33.4V21.4H347.157V33.4H335.157Z" fill="black"/>
<g filter="url(#filter0_d_1074_2500)">
<rect x="9.74173" y="116.785" width="603" height="92" rx="10" transform="rotate(-1.5 9.74173 116.785)" fill="#00C5F3" shape-rendering="crispEdges"/>
<path d="M35.5259 186.134L34.3558 141.449L51.5099 141C54.5889 140.919 57.3221 141.388 59.7095 142.406C62.137 143.422 64.0582 144.973 65.4732 147.056C66.8883 149.14 67.6366 151.741 67.7183 154.86C67.7979 157.899 67.1656 160.497 65.8216 162.652C64.5176 164.807 62.6806 166.476 60.3108 167.658C57.9799 168.8 55.2949 169.41 52.256 169.49L44.3987 169.696L44.8227 185.89L35.5259 186.134ZM44.1866 161.598L52.1039 161.391C53.4235 161.357 54.5563 161.067 55.5023 160.522C56.4484 159.977 57.1693 159.238 57.665 158.305C58.2007 157.37 58.4529 156.303 58.4215 155.104C58.389 153.864 58.0808 152.792 57.497 151.887C56.9531 150.981 56.1945 150.28 55.2212 149.786C54.2479 149.291 53.1015 149.061 51.7819 149.095L43.8646 149.303L44.1866 161.598ZM90.5907 185.412C87.9516 185.481 85.6777 184.98 83.7691 183.91C81.8993 182.799 80.4579 181.236 79.4449 179.222C78.4318 177.207 77.8897 174.841 77.8185 172.122L77.2986 152.269L86.2955 152.033L86.7965 171.166C86.829 172.406 87.0977 173.499 87.6027 174.446C88.1466 175.352 88.8852 176.053 89.8185 176.549C90.7518 177.045 91.7982 177.278 92.9578 177.247C94.1574 177.216 95.1902 176.929 96.0563 176.386C96.9624 175.842 97.6433 175.104 98.0991 174.172C98.5938 173.198 98.8249 172.092 98.7924 170.852L98.2914 151.719L107.288 151.483L108.146 184.232L99.7487 184.452L99.5791 177.974L100.097 179.401C99.3882 181.38 98.1868 182.872 96.4926 183.877C94.8372 184.841 92.8699 185.352 90.5907 185.412ZM132.574 184.313C128.976 184.407 125.815 183.649 123.092 182.04C120.407 180.39 118.548 178.138 117.513 175.284L124.029 171.992C124.915 173.729 126.09 175.079 127.556 176.041C129.022 177.003 130.634 177.461 132.394 177.415C133.673 177.381 134.646 177.096 135.312 176.558C135.978 176.021 136.299 175.292 136.275 174.372C136.263 173.892 136.132 173.496 135.884 173.182C135.635 172.828 135.266 172.518 134.779 172.251C134.292 171.983 133.686 171.759 132.961 171.578L127.342 170.165C124.643 169.475 122.552 168.309 121.068 166.668C119.584 164.986 118.811 162.986 118.751 160.666C118.697 158.627 119.17 156.834 120.17 155.287C121.17 153.741 122.599 152.523 124.456 151.634C126.312 150.705 128.46 150.209 130.899 150.145C134.098 150.061 136.917 150.747 139.356 152.204C141.834 153.62 143.608 155.674 144.679 158.367L138.103 161.66C137.588 160.313 136.68 159.256 135.379 158.49C134.118 157.683 132.687 157.3 131.088 157.342C129.928 157.373 129.015 157.637 128.348 158.134C127.72 158.631 127.418 159.299 127.44 160.139C127.451 160.579 127.582 160.975 127.831 161.329C128.08 161.682 128.469 161.992 128.996 162.259C129.563 162.524 130.249 162.766 131.055 162.985L136.315 164.408C139.055 165.136 141.166 166.301 142.648 167.903C144.13 169.465 144.901 171.425 144.963 173.785C145.016 175.824 144.523 177.617 143.483 179.165C142.483 180.712 141.055 181.95 139.199 182.879C137.342 183.768 135.133 184.246 132.574 184.313ZM165.742 183.444C163.383 183.506 161.333 183.179 159.594 182.465C157.855 181.75 156.507 180.705 155.551 179.329C154.593 177.914 154.089 176.227 154.038 174.267C153.989 172.428 154.367 170.797 155.17 169.376C155.972 167.914 157.22 166.681 158.914 165.677C160.649 164.671 162.81 163.934 165.399 163.466L175.373 161.584L175.546 168.182L167.188 169.902C165.915 170.175 164.946 170.62 164.282 171.238C163.617 171.816 163.298 172.644 163.327 173.724C163.353 174.724 163.753 175.493 164.527 176.033C165.302 176.573 166.249 176.828 167.368 176.799C168.848 176.76 170.139 176.406 171.242 175.737C172.345 175.068 173.182 174.186 173.754 173.091C174.364 171.954 174.652 170.726 174.617 169.407L174.394 160.89C174.362 159.65 173.835 158.624 172.813 157.81C171.832 156.996 170.501 156.61 168.822 156.654C167.222 156.696 165.814 157.173 164.598 158.085C163.421 158.996 162.572 160.179 162.05 161.633L154.763 158.403C155.354 156.547 156.332 154.941 157.697 153.584C159.062 152.228 160.715 151.165 162.656 150.393C164.596 149.622 166.726 149.207 169.045 149.146C171.804 149.074 174.256 149.509 176.402 150.454C178.547 151.398 180.223 152.754 181.43 154.523C182.676 156.251 183.33 158.295 183.391 160.654L183.957 182.247L175.56 182.467L175.421 177.188L177.451 176.775C176.529 178.24 175.501 179.467 174.367 180.457C173.231 181.407 171.949 182.121 170.521 182.599C169.094 183.116 167.501 183.398 165.742 183.444ZM210.752 181.905C206.793 182.009 203.686 181.03 201.431 178.968C199.216 176.866 198.057 173.895 197.957 170.056L197.613 156.921L192.095 157.065L191.891 149.268L192.191 149.26C193.87 149.216 195.139 148.763 195.996 147.9C196.894 147.036 197.321 145.764 197.277 144.085L197.214 141.686L206.211 141.45L206.406 148.888L214.083 148.687L214.287 156.484L206.61 156.685L206.938 169.221C206.967 170.34 207.192 171.275 207.612 172.024C208.03 172.733 208.664 173.257 209.514 173.595C210.363 173.933 211.407 174.085 212.647 174.053C212.927 174.046 213.246 174.017 213.605 173.968C213.964 173.918 214.342 173.869 214.741 173.818L214.941 181.435C214.343 181.531 213.665 181.629 212.908 181.729C212.15 181.829 211.431 181.887 210.752 181.905ZM241.647 180.736L240.477 136.051L249.773 135.808L250.943 180.493L241.647 180.736ZM263.206 180.172L262.348 147.423L270.745 147.203L270.915 153.681L270.397 152.254C271.106 150.275 272.288 148.803 273.943 147.839C275.637 146.835 277.624 146.303 279.903 146.243C282.383 146.178 284.555 146.641 286.422 147.633C288.329 148.623 289.826 150.044 290.915 151.897C292.003 153.709 292.579 155.854 292.644 158.333L293.196 179.386L284.199 179.622L283.698 160.488C283.664 159.209 283.375 158.116 282.831 157.21C282.328 156.303 281.609 155.601 280.676 155.106C279.782 154.609 278.736 154.376 277.536 154.408C276.377 154.438 275.344 154.725 274.438 155.269C273.532 155.813 272.831 156.552 272.335 157.485C271.879 158.417 271.668 159.523 271.702 160.803L272.203 179.936L263.206 180.172ZM304.11 179.1L303.252 146.352L311.649 146.132L311.819 152.61L311.301 151.183C312.01 149.203 313.192 147.732 314.847 146.768C316.541 145.764 318.528 145.231 320.807 145.172C323.286 145.107 325.459 145.57 327.326 146.562C329.233 147.552 330.73 148.973 331.819 150.825C332.907 152.638 333.483 154.783 333.548 157.262L334.099 178.315L325.103 178.551L324.602 159.417C324.568 158.138 324.279 157.045 323.735 156.139C323.232 155.232 322.513 154.53 321.58 154.035C320.686 153.538 319.64 153.305 318.44 153.337C317.281 153.367 316.248 153.654 315.342 154.198C314.436 154.742 313.735 155.48 313.239 156.414C312.783 157.346 312.572 158.452 312.606 159.731L313.107 178.865L304.11 179.1ZM361.287 178.323C358.048 178.408 355.07 177.746 352.352 176.337C349.674 174.926 347.502 172.962 345.835 170.445C344.208 167.887 343.351 164.968 343.265 161.69C343.178 158.371 343.881 155.411 345.374 152.811C346.906 150.21 348.973 148.135 351.573 146.587C354.213 145.037 357.153 144.22 360.392 144.135C363.631 144.05 366.589 144.713 369.267 146.124C371.945 147.534 374.097 149.498 375.723 152.017C377.39 154.534 378.266 157.452 378.353 160.771C378.439 164.05 377.716 167.01 376.185 169.651C374.693 172.25 372.646 174.325 370.046 175.873C367.446 177.422 364.526 178.239 361.287 178.323ZM361.075 170.226C362.714 170.183 364.124 169.766 365.304 168.975C366.523 168.183 367.455 167.098 368.099 165.721C368.784 164.342 369.103 162.774 369.057 161.014C369.01 159.255 368.61 157.725 367.856 156.424C367.141 155.082 366.153 154.048 364.894 153.321C363.673 152.552 362.243 152.189 360.604 152.232C358.964 152.275 357.535 152.713 356.317 153.545C355.097 154.337 354.145 155.423 353.461 156.801C352.816 158.138 352.516 159.687 352.562 161.446C352.608 163.205 352.989 164.756 353.704 166.098C354.46 167.438 355.467 168.472 356.727 169.2C357.986 169.927 359.436 170.269 361.075 170.226ZM398.751 176.622L384.998 144.211L394.715 143.957L404.301 168.494L400.582 168.592L408.87 143.586L418.587 143.332L406.549 176.418L398.751 176.622ZM437.387 176.331C435.028 176.393 432.979 176.066 431.239 175.351C429.5 174.637 428.152 173.592 427.196 172.216C426.238 170.801 425.734 169.113 425.683 167.154C425.635 165.315 426.012 163.684 426.815 162.263C427.617 160.801 428.865 159.568 430.56 158.563C432.294 157.558 434.455 156.821 437.044 156.353L447.018 154.471L447.191 161.069L438.833 162.788C437.56 163.062 436.591 163.507 435.927 164.125C435.262 164.702 434.943 165.531 434.972 166.611C434.998 167.61 435.398 168.38 436.173 168.92C436.947 169.46 437.894 169.715 439.014 169.686C440.493 169.647 441.784 169.293 442.887 168.624C443.99 167.955 444.827 167.073 445.399 165.977C446.009 164.841 446.297 163.613 446.263 162.294L446.04 153.777C446.007 152.537 445.48 151.51 444.458 150.697C443.477 149.882 442.146 149.497 440.467 149.541C438.867 149.583 437.459 150.06 436.243 150.972C435.066 151.883 434.217 153.066 433.695 154.52L426.408 151.29C426.999 149.433 427.978 147.827 429.343 146.471C430.708 145.115 432.36 144.051 434.301 143.28C436.241 142.509 438.371 142.093 440.69 142.033C443.449 141.96 445.902 142.396 448.047 143.34C450.193 144.285 451.869 145.641 453.075 147.41C454.321 149.138 454.975 151.182 455.036 153.541L455.602 175.134L447.205 175.353L447.067 170.075L449.096 169.662C448.174 171.127 447.146 172.354 446.012 173.344C444.876 174.294 443.595 175.008 442.167 175.485C440.74 176.003 439.146 176.285 437.387 176.331ZM482.397 174.792C478.438 174.896 475.331 173.917 473.077 171.855C470.861 169.752 469.703 166.782 469.602 162.943L469.258 149.807L463.74 149.952L463.536 142.155L463.836 142.147C465.515 142.103 466.784 141.649 467.641 140.787C468.539 139.923 468.966 138.651 468.922 136.972L468.859 134.573L477.856 134.337L478.051 141.774L485.728 141.573L485.932 149.371L478.255 149.572L478.583 162.107C478.613 163.227 478.837 164.162 479.257 164.911C479.676 165.62 480.31 166.144 481.159 166.482C482.008 166.819 483.052 166.972 484.292 166.94C484.572 166.932 484.891 166.904 485.25 166.855C485.609 166.805 485.988 166.755 486.386 166.705L486.586 174.322C485.988 174.418 485.31 174.516 484.553 174.615C483.795 174.715 483.076 174.774 482.397 174.792ZM496.856 174.053L495.999 141.304L504.996 141.069L505.853 173.818L496.856 174.053ZM495.922 138.365L495.686 129.369L504.683 129.133L504.919 138.13L495.922 138.365ZM533.708 173.808C530.469 173.893 527.491 173.231 524.773 171.822C522.095 170.411 519.923 168.447 518.257 165.93C516.629 163.372 515.773 160.453 515.687 157.175C515.6 153.856 516.303 150.896 517.795 148.296C519.328 145.695 521.394 143.62 523.994 142.072C526.635 140.522 529.574 139.705 532.813 139.62C536.052 139.535 539.01 140.198 541.688 141.609C544.366 143.019 546.518 144.983 548.145 147.502C549.811 150.019 550.688 152.937 550.775 156.256C550.861 159.535 550.138 162.495 548.606 165.136C547.114 167.735 545.068 169.81 542.467 171.358C539.867 172.907 536.947 173.724 533.708 173.808ZM533.496 165.711C535.136 165.668 536.545 165.251 537.725 164.46C538.945 163.668 539.877 162.583 540.521 161.206C541.205 159.827 541.524 158.259 541.478 156.499C541.432 154.74 541.032 153.21 540.277 151.909C539.562 150.567 538.575 149.533 537.315 148.805C536.095 148.037 534.665 147.674 533.025 147.717C531.386 147.76 529.957 148.198 528.738 149.03C527.518 149.822 526.566 150.908 525.882 152.286C525.237 153.623 524.938 155.172 524.984 156.931C525.03 158.69 525.41 160.241 526.126 161.583C526.881 162.923 527.888 163.957 529.148 164.685C530.407 165.412 531.857 165.754 533.496 165.711ZM561.502 172.36L560.644 139.612L569.042 139.392L569.211 145.87L568.694 144.443C569.402 142.463 570.584 140.992 572.239 140.028C573.934 139.024 575.92 138.491 578.2 138.432C580.679 138.367 582.852 138.83 584.718 139.822C586.625 140.812 588.122 142.233 589.211 144.085C590.299 145.898 590.876 148.043 590.94 150.522L591.492 171.575L582.495 171.811L581.994 152.677C581.96 151.398 581.672 150.305 581.128 149.399C580.624 148.492 579.905 147.79 578.972 147.295C578.079 146.798 577.032 146.565 575.833 146.596C574.673 146.627 573.64 146.914 572.734 147.458C571.828 148.002 571.127 148.74 570.631 149.674C570.176 150.606 569.964 151.712 569.998 152.991L570.499 172.125L561.502 172.36Z" fill="white"/>
</g>
<g filter="url(#filter1_d_1074_2500)">
<rect x="190.953" y="217" width="375" height="92" rx="10" transform="rotate(2 190.953 217)" fill="#00C5F3" shape-rendering="crispEdges"/>
<path d="M212.455 287.794L214.015 243.121L231.165 243.72C234.243 243.827 236.942 244.462 239.263 245.623C241.624 246.787 243.447 248.451 244.732 250.617C246.017 252.784 246.606 255.426 246.497 258.544C246.391 261.582 245.601 264.136 244.128 266.206C242.695 268.277 240.759 269.83 238.322 270.866C235.925 271.863 233.208 272.308 230.17 272.202L222.315 271.928L221.749 288.118L212.455 287.794ZM222.598 263.833L230.513 264.109C231.832 264.155 232.98 263.935 233.958 263.449C234.935 262.963 235.7 262.269 236.252 261.368C236.844 260.468 237.16 259.418 237.202 258.219C237.246 256.98 237.003 255.891 236.476 254.952C235.988 254.014 235.274 253.269 234.333 252.716C233.391 252.163 232.261 251.863 230.942 251.817L223.027 251.54L222.598 263.833ZM270.308 290.534C266.83 290.413 263.838 289.548 261.333 287.939C258.829 286.291 256.923 284.143 255.614 281.496C254.306 278.849 253.707 275.946 253.817 272.788C253.931 269.51 254.753 266.617 256.281 264.109C257.85 261.602 259.899 259.652 262.429 258.26C264.959 256.867 267.783 256.225 270.902 256.334C273.5 256.425 275.784 256.925 277.753 257.834C279.724 258.703 281.363 259.901 282.671 261.428C284.018 262.956 285.018 264.712 285.669 266.696C286.322 268.64 286.608 270.751 286.528 273.03C286.506 273.669 286.444 274.307 286.342 274.944C286.281 275.543 286.163 276.059 285.987 276.493L261.462 275.636L261.693 269.04L281.121 269.719L276.754 272.688C277.214 270.983 277.247 269.464 276.854 268.129C276.461 266.755 275.719 265.668 274.626 264.869C273.575 264.032 272.249 263.586 270.65 263.53C269.091 263.475 267.739 263.808 266.593 264.529C265.447 265.249 264.569 266.339 263.957 267.799C263.346 269.258 263.063 271.05 263.109 273.172C262.885 275.006 263.048 276.632 263.599 278.053C264.15 279.473 265.031 280.604 266.242 281.447C267.455 282.25 268.941 282.682 270.7 282.743C272.299 282.799 273.669 282.527 274.811 281.926C275.992 281.327 276.923 280.479 277.601 279.382L284.678 283.051C283.982 284.628 282.914 285.991 281.473 287.142C280.072 288.294 278.42 289.177 276.517 289.791C274.616 290.365 272.546 290.612 270.308 290.534ZM296.217 290.719L297.36 257.979L305.755 258.272L305.529 264.748L305.099 263.292C305.927 261.36 307.197 259.963 308.908 259.102C310.66 258.203 312.676 257.793 314.954 257.872C317.433 257.959 319.573 258.554 321.376 259.658C323.219 260.763 324.627 262.273 325.601 264.188C326.576 266.063 327.02 268.24 326.933 270.718L326.198 291.766L317.204 291.451L317.872 272.323C317.917 271.044 317.695 269.935 317.208 268.998C316.76 268.062 316.085 267.318 315.184 266.766C314.323 266.216 313.293 265.919 312.093 265.878C310.934 265.837 309.886 266.061 308.948 266.548C308.01 267.036 307.266 267.73 306.714 268.631C306.202 269.534 305.924 270.625 305.879 271.904L305.211 291.033L296.217 290.719ZM352.855 293.417C349.377 293.295 346.385 292.43 343.88 290.822C341.376 289.174 339.47 287.026 338.161 284.379C336.853 281.731 336.254 278.829 336.364 275.671C336.479 272.393 337.3 269.499 338.829 266.991C340.397 264.484 342.446 262.535 344.977 261.142C347.507 259.75 350.331 259.108 353.449 259.217C356.047 259.307 358.331 259.808 360.301 260.717C362.272 261.586 363.911 262.784 365.218 264.311C366.566 265.839 367.565 267.595 368.216 269.578C368.869 271.522 369.155 273.634 369.076 275.912C369.053 276.552 368.991 277.19 368.889 277.827C368.828 278.425 368.71 278.941 368.535 279.376L344.01 278.519L344.24 271.923L363.668 272.602L359.302 275.571C359.762 273.866 359.795 272.346 359.401 271.012C359.009 269.637 358.266 268.551 357.173 267.752C356.122 266.915 354.797 266.468 353.198 266.412C351.639 266.358 350.286 266.691 349.14 267.411C347.994 268.132 347.116 269.222 346.505 270.681C345.893 272.141 345.611 273.932 345.657 276.055C345.432 277.888 345.596 279.515 346.147 280.935C346.697 282.355 347.578 283.487 348.79 284.329C350.002 285.132 351.488 285.564 353.247 285.626C354.846 285.682 356.217 285.409 357.358 284.809C358.54 284.21 359.47 283.362 360.149 282.265L367.225 285.934C366.529 287.51 365.461 288.874 364.02 290.024C362.619 291.176 360.967 292.059 359.065 292.673C357.164 293.247 355.094 293.495 352.855 293.417ZM378.764 293.601L380.349 248.209L389.344 248.523L387.759 293.915L378.764 293.601ZM399.337 294.32L400.481 261.58L409.475 261.894L408.332 294.634L399.337 294.32ZM400.583 258.641L400.897 249.647L409.892 249.961L409.578 258.955L400.583 258.641ZM435.669 295.949C431.711 295.81 428.67 294.644 426.545 292.448C424.462 290.214 423.487 287.178 423.621 283.34L424.08 270.208L418.563 270.016L418.835 262.221L419.135 262.231C420.814 262.29 422.108 261.915 423.017 261.106C423.966 260.298 424.469 259.055 424.528 257.376L424.612 254.978L433.606 255.292L433.347 262.727L441.022 262.995L440.75 270.791L433.074 270.523L432.637 283.055C432.598 284.174 432.765 285.121 433.138 285.894C433.513 286.628 434.113 287.189 434.94 287.578C435.767 287.967 436.8 288.183 438.04 288.227C438.319 288.236 438.64 288.228 439.001 288.2C439.362 288.173 439.743 288.146 440.145 288.12L439.879 295.735C439.276 295.794 438.594 295.851 437.832 295.904C437.069 295.957 436.348 295.972 435.669 295.949ZM450.146 296.094L451.29 263.354L460.284 263.668L459.141 296.408L450.146 296.094ZM451.392 260.416L451.706 251.421L460.701 251.735L460.387 260.73L451.392 260.416ZM480.828 297.886C478.47 297.803 476.444 297.352 474.752 296.533C473.059 295.713 471.778 294.588 470.907 293.157C470.038 291.685 469.638 289.97 469.706 288.012C469.77 286.173 470.247 284.568 471.135 283.199C472.025 281.789 473.346 280.634 475.098 279.735C476.891 278.837 479.093 278.233 481.706 277.924L491.776 276.655L491.546 283.251L483.098 284.457C481.811 284.652 480.817 285.038 480.116 285.613C479.417 286.149 479.049 286.957 479.011 288.036C478.976 289.036 479.329 289.829 480.069 290.415C480.809 291.001 481.738 291.314 482.858 291.353C484.337 291.404 485.647 291.13 486.789 290.529C487.93 289.929 488.82 289.099 489.457 288.041C490.136 286.944 490.498 285.736 490.544 284.417L490.842 275.902C490.885 274.663 490.422 273.606 489.452 272.731C488.521 271.858 487.217 271.393 485.538 271.334C483.939 271.278 482.504 271.668 481.234 272.504C480.004 273.342 479.085 274.471 478.475 275.89L471.398 272.221C472.102 270.405 473.177 268.861 474.622 267.591C476.067 266.32 477.782 265.36 479.766 264.708C481.75 264.057 483.901 263.772 486.219 263.853C488.978 263.95 491.399 264.534 493.483 265.608C495.566 266.681 497.157 268.138 498.253 269.977C499.391 271.778 499.919 273.857 499.836 276.216L499.082 297.803L490.688 297.51L490.872 292.233L492.923 291.944C491.913 293.35 490.812 294.512 489.619 295.431C488.428 296.31 487.105 296.944 485.651 297.334C484.195 297.763 482.587 297.947 480.828 297.886ZM510.676 298.208L511.819 265.468L520.214 265.761L519.988 272.237L519.558 270.781C520.386 268.849 521.656 267.452 523.367 266.591C525.119 265.692 527.135 265.282 529.414 265.362C531.892 265.448 534.033 266.043 535.835 267.147C537.678 268.252 539.086 269.762 540.06 271.677C541.035 273.552 541.479 275.729 541.393 278.207L540.658 299.255L531.663 298.941L532.331 279.812C532.376 278.533 532.154 277.425 531.667 276.487C531.219 275.551 530.545 274.807 529.643 274.255C528.782 273.705 527.752 273.408 526.552 273.367C525.393 273.326 524.345 273.55 523.407 274.037C522.47 274.525 521.725 275.219 521.173 276.121C520.661 277.023 520.383 278.114 520.338 279.393L519.67 298.522L510.676 298.208Z" fill="white"/>
</g>
<defs>
<filter id="filter0_d_1074_2500" x="-0.25827" y="95.0001" width="625.202" height="127.753" filterUnits="userSpaceOnUse" color-interpolation-filters="sRGB">
<feFlood flood-opacity="0" result="BackgroundImageFix"/>
<feColorMatrix in="SourceAlpha" type="matrix" values="0 0 0 0 0 0 0 0 0 0 0 0 0 0 0 0 0 0 127 0" result="hardAlpha"/>
<feOffset dy="4"/>
<feGaussianBlur stdDeviation="5"/>
<feComposite in2="hardAlpha" operator="out"/>
<feColorMatrix type="matrix" values="0 0 0 0 0 0 0 0 0 0.623529 0 0 0 0 0.768627 0 0 0 0.5 0"/>
<feBlend mode="normal" in2="BackgroundImageFix" result="effect1_dropShadow_1074_2500"/>
<feBlend mode="normal" in="SourceGraphic" in2="effect1_dropShadow_1074_2500" result="shape"/>
</filter>
<filter id="filter1_d_1074_2500" x="177.742" y="211" width="397.982" height="125.031" filterUnits="userSpaceOnUse" color-interpolation-filters="sRGB">
<feFlood flood-opacity="0" result="BackgroundImageFix"/>
<feColorMatrix in="SourceAlpha" type="matrix" values="0 0 0 0 0 0 0 0 0 0 0 0 0 0 0 0 0 0 127 0" result="hardAlpha"/>
<feOffset dy="4"/>
<feGaussianBlur stdDeviation="5"/>
<feComposite in2="hardAlpha" operator="out"/>
<feColorMatrix type="matrix" values="0 0 0 0 0 0 0 0 0 0.623529 0 0 0 0 0.768627 0 0 0 0.5 0"/>
<feBlend mode="normal" in2="BackgroundImageFix" result="effect1_dropShadow_1074_2500"/>
<feBlend mode="normal" in="SourceGraphic" in2="effect1_dropShadow_1074_2500" result="shape"/>
</filter>
</defs>
</svg>
