<svg width="34" height="34" viewBox="0 0 34 34" fill="none" xmlns="http://www.w3.org/2000/svg">
<g clip-path="url(#clip0_678_3481)">
<g clip-path="url(#clip1_678_3481)">
<path d="M35 17C35 7.05887 26.9411 -1 17 -1C7.05887 -1 -1 7.05887 -1 17C-1 26.9411 7.05887 35 17 35C26.9411 35 35 26.9411 35 17Z" fill="#E6F5F2"/>
<path d="M16 8C13.7909 8 12 9.791 12 12H11C8.7909 12 7 13.791 7 16V22C7 24.209 8.7909 26 11 26H23C25.2091 26 27 24.209 27 22V16C27 13.791 25.2091 12 23 12H22C22 9.791 20.2091 8 18 8H16ZM16 10H18C19.1046 10 20 10.895 20 12H14C14 10.895 14.8954 10 16 10ZM11 14H23C24.1046 14 25 14.895 25 16V16.281L19.6562 18.062C18.2212 18.541 15.7788 18.541 14.3438 18.062L9 16.281V16C9 14.895 9.8954 14 11 14ZM9 18.375L13.7188 19.969C15.5643 20.584 18.4357 20.584 20.2812 19.969L25 18.375V22C25 23.105 24.1046 24 23 24H11C9.8954 24 9 23.105 9 22V18.375Z" fill="#33B2D0"/>
</g>
</g>
<defs>
<clipPath id="clip0_678_3481">
<rect width="34" height="34" fill="white"/>
</clipPath>
<clipPath id="clip1_678_3481">
<rect width="34" height="34" fill="white"/>
</clipPath>
</defs>
</svg>
