<svg width="36" height="37" viewBox="0 0 36 37" fill="none" xmlns="http://www.w3.org/2000/svg">
<g clip-path="url(#clip0_678_3500)">
<g clip-path="url(#clip1_678_3500)">
<g clip-path="url(#clip2_678_3500)">
<path d="M36 18.5C36 8.55887 27.9411 0.5 18 0.5C8.05887 0.5 0 8.55887 0 18.5C0 28.4411 8.05887 36.5 18 36.5C27.9411 36.5 36 28.4411 36 18.5Z" fill="#E6F5F9"/>
<path d="M14.0059 8.51416C13.4539 8.51416 13.0059 8.96216 13.0059 9.51416C10.7969 9.51416 9.00586 11.3052 9.00586 13.5142V15.5142V23.5142C9.00586 25.7222 10.7969 27.5142 13.0059 27.5142H23.0059C25.2149 27.5142 27.0059 25.7232 27.0059 23.5142V15.5142V13.5142C27.0059 11.3052 25.2149 9.51416 23.0059 9.51416C23.0059 8.96216 22.5579 8.51416 22.0059 8.51416C21.4539 8.51416 21.0059 8.96216 21.0059 9.51416H15.0059C15.0059 8.96216 14.5579 8.51416 14.0059 8.51416ZM13.0059 11.5142C13.0059 12.0662 13.4539 12.5142 14.0059 12.5142C14.5579 12.5142 15.0059 12.0662 15.0059 11.5142H21.0059C21.0059 12.0662 21.4539 12.5142 22.0059 12.5142C22.5579 12.5142 23.0059 12.0662 23.0059 11.5142C24.1109 11.5142 25.0059 12.4092 25.0059 13.5142V14.5142C23.0819 14.5142 12.9299 14.5142 11.0059 14.5142V13.5142C11.0059 12.4092 11.9009 11.5142 13.0059 11.5142ZM11.0059 16.5142C12.9299 16.5142 23.0819 16.5142 25.0059 16.5142V23.5142C25.0059 24.6172 24.1109 25.5142 23.0059 25.5142H13.0059C11.9009 25.5142 11.0059 24.6192 11.0059 23.5142V16.5142ZM21.0059 18.5142C20.4539 18.5142 20.0059 18.9622 20.0059 19.5142V20.5142C20.0059 21.0662 20.4539 21.5142 21.0059 21.5142H22.0059C22.5579 21.5142 23.0059 21.0662 23.0059 20.5142V19.5142C23.0059 18.9622 22.5579 18.5142 22.0059 18.5142H21.0059Z" fill="#33B2D0"/>
</g>
</g>
</g>
<defs>
<clipPath id="clip0_678_3500">
<rect width="36" height="37" fill="white"/>
</clipPath>
<clipPath id="clip1_678_3500">
<rect width="36" height="37" fill="white"/>
</clipPath>
<clipPath id="clip2_678_3500">
<rect width="36" height="37" fill="white"/>
</clipPath>
</defs>
</svg>
