<svg width="34" height="34" viewBox="0 0 34 34" fill="none" xmlns="http://www.w3.org/2000/svg">
<g clip-path="url(#clip0_678_3488)">
<path d="M35 17C35 7.05887 26.9411 -1 17 -1C7.05887 -1 -1 7.05887 -1 17C-1 26.9411 7.05887 35 17 35C26.9411 35 35 26.9411 35 17Z" fill="#E6F5F2"/>
<path d="M16.999 7.01416C11.476 7.01416 6.99902 11.4912 6.99902 17.0142C6.99902 22.5372 11.476 27.0142 16.999 27.0142C22.522 27.0142 26.999 22.5372 26.999 17.0142C26.999 11.4912 22.522 7.01416 16.999 7.01416ZM16.999 9.0142C18.319 9.0142 19.769 12.0462 19.99 16.0112L14.02 16.0232C14.24 12.0582 15.679 9.0142 16.999 9.0142ZM13.468 9.8172C12.608 11.4902 12.148 13.7082 12.037 16.0162L9.057 16.0072C9.355 13.2822 11.19 10.9962 13.468 9.8172ZM20.535 9.8222C22.813 11.0012 24.601 13.2232 24.946 16.0232L21.967 16.0142C21.873 13.6142 21.342 11.5042 20.535 9.8222ZM9.063 18.0182L12.042 17.9932C12.153 20.3012 12.616 22.5572 13.472 24.2122C11.08 23.0132 9.407 20.6662 9.063 18.0182ZM14.004 18.0262L19.974 18.0132C19.754 21.9772 18.319 25.0142 16.999 25.0142C15.679 25.0142 14.224 21.9912 14.004 18.0262ZM21.972 18.0162L24.938 18.0072C24.594 20.6562 22.922 23.0222 20.531 24.2012C21.419 22.3652 21.861 20.3242 21.972 18.0162Z" fill="#33B2D0"/>
</g>
<defs>
<clipPath id="clip0_678_3488">
<rect width="34" height="34" fill="white"/>
</clipPath>
</defs>
</svg>
