<svg width="30" height="30" viewBox="0 0 30 30" fill="none" xmlns="http://www.w3.org/2000/svg">
<path d="M15 2.49988C21.9037 2.49988 27.5 8.09613 27.5 14.9999C27.5 21.9036 21.9037 27.4999 15 27.4999C8.09625 27.4999 2.5 21.9036 2.5 14.9999C2.5 8.09613 8.09625 2.49988 15 2.49988ZM14.9875 12.4999H13.75C13.4314 12.5002 13.125 12.6222 12.8933 12.8409C12.6616 13.0596 12.5222 13.3586 12.5035 13.6766C12.4849 13.9947 12.5883 14.3079 12.7928 14.5522C12.9973 14.7965 13.2874 14.9535 13.6038 14.9911L13.75 14.9999V21.2374C13.75 21.8874 14.2425 22.4249 14.875 22.4924L15.0125 22.4999H15.625C15.8879 22.4999 16.1441 22.417 16.3572 22.263C16.5702 22.109 16.7294 21.8918 16.8119 21.6422C16.8944 21.3926 16.8961 21.1233 16.8168 20.8727C16.7374 20.6221 16.5811 20.4028 16.37 20.2461L16.25 20.1674V13.7624C16.25 13.1124 15.7575 12.5749 15.125 12.5074L14.9875 12.4999ZM15 8.74988C14.6685 8.74988 14.3505 8.88157 14.1161 9.11599C13.8817 9.35042 13.75 9.66836 13.75 9.99988C13.75 10.3314 13.8817 10.6493 14.1161 10.8838C14.3505 11.1182 14.6685 11.2499 15 11.2499C15.3315 11.2499 15.6495 11.1182 15.8839 10.8838C16.1183 10.6493 16.25 10.3314 16.25 9.99988C16.25 9.66836 16.1183 9.35042 15.8839 9.11599C15.6495 8.88157 15.3315 8.74988 15 8.74988Z" fill="#6C6D6F"/>
</svg>
