<svg width="39" height="37" viewBox="0 0 39 37" fill="none" xmlns="http://www.w3.org/2000/svg">
<ellipse cx="19.5" cy="18.5" rx="19.5" ry="18.5" fill="white"/>
<path d="M16.5061 11.3086C16.3643 11.4428 16.2518 11.6022 16.1751 11.7778C16.0983 11.9533 16.0588 12.1415 16.0588 12.3315C16.0588 12.5215 16.0983 12.7097 16.1751 12.8852C16.2518 13.0608 16.3643 13.2202 16.5061 13.3544L22.4402 18.9843L16.5061 24.6141C16.2201 24.8854 16.0595 25.2533 16.0595 25.637C16.0595 26.0207 16.2201 26.3886 16.5061 26.6599C16.7921 26.9312 17.1799 27.0837 17.5843 27.0837C17.9888 27.0837 18.3766 26.9312 18.6626 26.6599L25.6826 19.9999C25.8244 19.8657 25.9368 19.7063 26.0136 19.5307C26.0903 19.3552 26.1298 19.167 26.1298 18.977C26.1298 18.787 26.0903 18.5988 26.0136 18.4233C25.9368 18.2477 25.8244 18.0883 25.6826 17.9541L18.6626 11.2941C18.0814 10.7427 17.1026 10.7427 16.5061 11.3086Z" fill="#009FC4"/>
</svg>
