<svg width="39" height="37" viewBox="0 0 39 37" fill="none" xmlns="http://www.w3.org/2000/svg">
<ellipse cx="19.5" cy="18.5" rx="19.5" ry="18.5" transform="rotate(-180 19.5 18.5)" fill="white"/>
<path d="M22.4939 25.6914C22.6357 25.5572 22.7482 25.3978 22.8249 25.2222C22.9017 25.0467 22.9412 24.8585 22.9412 24.6685C22.9412 24.4785 22.9017 24.2903 22.8249 24.1148C22.7482 23.9392 22.6357 23.7798 22.4939 23.6456L16.5598 18.0157L22.4939 12.3859C22.7799 12.1146 22.9405 11.7467 22.9405 11.363C22.9405 10.9793 22.7799 10.6114 22.4939 10.3401C22.2079 10.0688 21.8201 9.91635 21.4157 9.91635C21.0112 9.91635 20.6234 10.0688 20.3374 10.3401L13.3174 17.0001C13.1756 17.1343 13.0632 17.2937 12.9864 17.4693C12.9097 17.6448 12.8702 17.833 12.8702 18.023C12.8702 18.213 12.9097 18.4012 12.9864 18.5767C13.0632 18.7523 13.1756 18.9117 13.3174 19.0459L20.3374 25.7059C20.9186 26.2573 21.8974 26.2573 22.4939 25.6914Z" fill="#009FC4"/>
</svg>
