<svg width="20" height="20" viewBox="0 0 20 20" fill="none" xmlns="http://www.w3.org/2000/svg">
<g clip-path="url(#clip0_678_3667)">
<g clip-path="url(#clip1_678_3667)">
<g clip-path="url(#clip2_678_3667)">
<path d="M6.6853 1.66675C6.22609 1.66675 5.8534 2.04008 5.8534 2.50008C4.01406 2.50008 2.5 3.99425 2.5 5.83341V7.50008L2.52579 14.1667C2.52579 16.0051 4.01573 17.5001 5.8534 17.5001H14.1724C16.0101 17.5001 17.5 16.0076 17.5 14.1667L17.4742 7.50008V5.83341C17.4742 3.99091 16.0084 2.50008 14.1724 2.50008C14.1724 2.04008 13.8005 1.66675 13.3405 1.66675C12.8813 1.66675 12.5086 2.04008 12.5086 2.50008H7.5172C7.5172 2.04008 7.14534 1.66675 6.6853 1.66675ZM5.8534 4.16675C5.8534 4.62675 6.22609 5.00008 6.6853 5.00008C7.14534 5.00008 7.5172 4.62675 7.5172 4.16675H12.5086C12.5086 4.62675 12.8813 5.00008 13.3405 5.00008C13.8005 5.00008 14.1724 4.62675 14.1724 4.16675C15.085 4.16675 15.8104 4.90675 15.8104 5.83341V6.66675C14.2098 6.66675 5.76438 6.66675 4.1638 6.66675V5.83341C4.1638 4.91925 4.92832 4.16675 5.8534 4.16675ZM4.1638 8.33341C5.76438 8.33341 14.2098 8.33341 15.8104 8.33341L15.8362 14.1667C15.8362 15.0842 15.0916 15.8334 14.1724 15.8334H5.8534C4.93498 15.8334 4.18959 15.0876 4.18959 14.1667L4.1638 8.33341Z" fill="white"/>
</g>
</g>
</g>
<defs>
<clipPath id="clip0_678_3667">
<rect width="20" height="20" fill="white"/>
</clipPath>
<clipPath id="clip1_678_3667">
<rect width="1920" height="1200" fill="white"/>
</clipPath>
<clipPath id="clip2_678_3667">
<rect width="20" height="20" fill="white"/>
</clipPath>
</defs>
</svg>
