<svg width="48" height="48" viewBox="0 0 48 48" fill="none" xmlns="http://www.w3.org/2000/svg">
<path d="M37 10H39.404C41.806 10 43.006 10 43.634 10.754C44.26 11.51 44 12.642 43.478 14.908L42.698 18.308C41.52 23.416 37.22 27.216 32 28M11 10H8.59602C6.19402 10 4.99202 10 4.36602 10.754C3.74002 11.51 4.00002 12.642 4.52202 14.908L5.30202 18.308C6.48002 23.416 10.78 27.216 16 28M24 34C20.652 34 17.74 36.53 16.236 40.262C15.516 42.046 16.548 44 17.916 44H30.082C31.452 44 32.482 42.046 31.764 40.262C30.26 36.53 27.348 34 24 34Z" stroke="white" stroke-width="3" stroke-linecap="round" stroke-linejoin="round"/>
<path d="M24 34C30.04 34 35.13 24.676 36.66 11.98C37.082 8.472 37.294 6.716 36.174 5.358C35.054 4 33.244 4 29.626 4H18.374C14.754 4 12.946 4 11.826 5.358C10.706 6.716 10.92 8.472 11.34 11.982C12.87 24.676 17.96 34 24 34Z" stroke="white" stroke-width="3" stroke-linecap="round" stroke-linejoin="round"/>
</svg>
