<svg width="24" height="24" viewBox="0 0 24 24" fill="none" xmlns="http://www.w3.org/2000/svg">
<path d="M20 9.8929C20 14.8325 14.461 19.9768 12.601 21.5656C12.4277 21.6945 12.2168 21.7642 12 21.7642C11.7832 21.7642 11.5723 21.6945 11.399 21.5656C9.539 19.9768 4 14.8325 4 9.8929C4 7.79388 4.84285 5.78082 6.34315 4.29659C7.84344 2.81235 9.87827 1.97852 12 1.97852C14.1217 1.97852 16.1566 2.81235 17.6569 4.29659C19.1571 5.78082 20 7.79388 20 9.8929Z" stroke="black" stroke-width="2" stroke-linecap="round" stroke-linejoin="round"/>
<path d="M12 12.8608C13.6569 12.8608 15 11.532 15 9.8929C15 8.25378 13.6569 6.92501 12 6.92501C10.3431 6.92501 9 8.25378 9 9.8929C9 11.532 10.3431 12.8608 12 12.8608Z" stroke="black" stroke-width="2" stroke-linecap="round" stroke-linejoin="round"/>
</svg>
