<svg width="48" height="48" viewBox="0 0 48 48" fill="none" xmlns="http://www.w3.org/2000/svg">
<path d="M43.42 17.42C45.92 14.92 44.78 12 43.42 10.58L37.42 4.57998C34.9 2.07998 32 3.21998 30.58 4.57998L27.18 7.99998H22C18.2 7.99998 16 9.99998 14.88 12.3L5.99998 21.18V29.18L4.57998 30.58C2.07998 33.1 3.21998 36 4.57998 37.42L10.58 43.42C11.66 44.5 12.82 44.9 13.92 44.9C15.34 44.9 16.64 44.2 17.42 43.42L22.82 38H30C33.4 38 35.12 35.88 35.74 33.8C38 33.2 39.24 31.48 39.74 29.8C42.84 29 44 26.06 44 24V18H42.82L43.42 17.42ZM40 24C40 24.9 39.62 26 38 26H36V28C36 28.9 35.62 30 34 30H32V32C32 32.9 31.62 34 30 34H21.18L14.62 40.56C14 41.14 13.64 40.8 13.42 40.58L7.43998 34.62C6.85998 34 7.19998 33.64 7.41998 33.42L9.99998 30.82V22.82L14 18.82V22C14 24.42 15.6 28 20 28C24.4 28 26 24.42 26 22H40V24ZM40.58 14.58L37.18 18H22V22C22 22.9 21.62 24 20 24C18.38 24 18 22.9 18 22V16C18 15.08 18.34 12 22 12H28.82L33.38 7.43998C34 6.85998 34.36 7.19998 34.58 7.41998L40.56 13.38C41.14 14 40.8 14.36 40.58 14.58Z" fill="white"/>
</svg>
